<svg width="17" height="19" viewBox="0 0 17 19" fill="none" xmlns="http://www.w3.org/2000/svg">
<path d="M2.7496 9.72833C2.94534 9.64206 3.12117 9.5181 3.26652 9.36388L3.26652 9.36699L6.92174 5.80266L6.92174 16.9462C6.92174 17.3583 7.08961 17.7535 7.38843 18.0449C7.68724 18.3363 8.09252 18.5 8.51512 18.5C8.93771 18.5 9.34299 18.3363 9.64181 18.0449C9.94062 17.7535 10.1085 17.3583 10.1085 16.9462L10.1085 5.80266L13.7605 9.36699C13.9075 9.51539 14.0833 9.63376 14.2777 9.71519C14.4721 9.79662 14.6812 9.83948 14.8928 9.84128C15.1043 9.84307 15.3142 9.80375 15.51 9.72563C15.7058 9.6475 15.8837 9.53214 16.0333 9.38625C16.1829 9.24036 16.3012 9.06688 16.3813 8.87593C16.4615 8.68498 16.5018 8.48038 16.4999 8.27407C16.4981 8.06776 16.4541 7.86388 16.3706 7.67431C16.2871 7.48475 16.1657 7.3133 16.0136 7.16997L9.64004 0.954923C9.34124 0.663637 8.93603 0.500001 8.51353 0.500001C8.09102 0.500001 7.68581 0.663636 7.38701 0.954923L1.01349 7.16997C0.855542 7.31193 0.728663 7.48356 0.640476 7.67456C0.552289 7.86555 0.504616 8.07196 0.500318 8.28137C0.496022 8.49079 0.535192 8.6989 0.615475 8.89318C0.695757 9.08746 0.815493 9.26391 0.967488 9.41191C1.11948 9.55992 1.3006 9.67642 1.49994 9.75444C1.69929 9.83245 1.91275 9.87035 2.12751 9.86586C2.34226 9.86138 2.55386 9.81459 2.7496 9.72833Z" fill="#FB4F4F"/>
</svg>
