<svg width="16" height="16" viewBox="0 0 16 16" fill="none" xmlns="http://www.w3.org/2000/svg">
<path d="M4.61598 12.9938L5.17648 13.2937C6.04442 13.7577 7.01367 13.9997 7.99784 13.9982H8.00041C9.18695 13.9982 10.3468 13.6464 11.3334 12.9871C12.32 12.3279 13.0889 11.391 13.543 10.2948C13.9971 9.19855 14.1159 7.9923 13.8844 6.82856C13.6529 5.66483 13.0815 4.59586 12.2425 3.75685C11.4035 2.91784 10.3345 2.34647 9.17081 2.11499C8.00707 1.88351 6.80082 2.00231 5.7046 2.45638C4.60838 2.91045 3.67143 3.67939 3.01222 4.66596C2.35302 5.65253 2.00117 6.81242 2.00117 7.99896V8.00153C1.99965 8.9857 2.24167 9.95495 2.70565 10.8229L3.00561 11.3834L2.54453 13.4548L4.61598 12.9938ZM0.2871 15.7123L1.19384 11.6311C0.566447 10.4557 0.254218 9.1378 0.287574 7.80585C0.320931 6.4739 0.698737 5.17331 1.38418 4.03079C2.06963 2.88826 3.03934 1.94277 4.19883 1.28644C5.35832 0.630105 6.66805 0.285309 8.00041 0.285645C10.0461 0.285645 12.008 1.0983 13.4546 2.54482C14.9011 3.99135 15.7137 5.95326 15.7137 7.99896C15.7141 9.33132 15.3693 10.6411 14.7129 11.8005C14.0566 12.96 13.1111 13.9297 11.9686 14.6152C10.8261 15.3006 9.52547 15.6784 8.19352 15.7118C6.86158 15.7452 5.5437 15.4329 4.3683 14.8055L0.2871 15.7123Z" fill="#00B0B9"/>
</svg>
