<svg width="17" height="19" viewBox="0 0 17 19" fill="none" xmlns="http://www.w3.org/2000/svg">
<path d="M14.2504 9.27167C14.0547 9.35793 13.8788 9.4819 13.7335 9.63612V9.63301L10.0783 13.1973L10.0783 2.05376C10.0783 1.64168 9.91039 1.24647 9.61157 0.955086C9.31276 0.663699 8.90748 0.5 8.48488 0.5C8.06229 0.5 7.65701 0.663699 7.35819 0.955086C7.05938 1.24647 6.8915 1.64168 6.8915 2.05376L6.8915 13.1973L3.23948 9.63301C3.09249 9.48461 2.91667 9.36624 2.72227 9.28481C2.52787 9.20338 2.31879 9.16052 2.10722 9.15872C1.89565 9.15693 1.68584 9.19625 1.49002 9.27437C1.2942 9.3525 1.1163 9.46786 0.966689 9.61375C0.817083 9.75964 0.69877 9.93312 0.618653 10.1241C0.538537 10.315 0.498222 10.5196 0.50006 10.7259C0.501899 10.9322 0.545853 11.1361 0.62936 11.3257C0.712868 11.5153 0.834257 11.6867 0.986441 11.83L7.35996 18.0451C7.65876 18.3364 8.06397 18.5 8.48648 18.5C8.90898 18.5 9.31419 18.3364 9.613 18.0451L15.9865 11.83C16.1445 11.6881 16.2713 11.5164 16.3595 11.3254C16.4477 11.1344 16.4954 10.928 16.4997 10.7186C16.504 10.5092 16.4648 10.3011 16.3845 10.1068C16.3042 9.91254 16.1845 9.73609 16.0325 9.58809C15.8805 9.44008 15.6994 9.32358 15.5001 9.24556C15.3007 9.16755 15.0872 9.12965 14.8725 9.13414C14.6577 9.13862 14.4461 9.18541 14.2504 9.27167Z" fill="#006FF1"/>
</svg>
