<svg width="28" height="28" viewBox="0 0 28 28" fill="none" xmlns="http://www.w3.org/2000/svg">
<path d="M21.107 2.73317C19.8537 1.93317 18.4537 1.34651 16.947 0.999841C16.1203 0.813175 15.3337 1.45317 15.3337 2.30651C15.3337 2.90651 15.7337 3.46651 16.3203 3.59984C17.5337 3.86651 18.6803 4.34651 19.6937 4.99984C20.2137 5.33317 20.8803 5.22651 21.3203 4.78651C21.9203 4.18651 21.827 3.18651 21.107 2.73317ZM25.6937 12.6665C26.547 12.6665 27.2003 11.8798 27.0003 11.0532C26.6537 9.55984 26.067 8.15984 25.267 6.89317C24.8137 6.17317 23.8003 6.07984 23.2003 6.67984C22.7737 7.10651 22.667 7.78651 22.987 8.30651C23.6403 9.33317 24.1203 10.4665 24.387 11.6798C24.5337 12.2665 25.0803 12.6665 25.6937 12.6665ZM23.2003 21.3198C23.8003 21.9198 24.8137 21.8265 25.267 21.1198C26.067 19.8665 26.6537 18.4665 27.0003 16.9732C27.187 16.1465 26.5337 15.3598 25.6937 15.3598C25.0937 15.3598 24.5337 15.7598 24.4003 16.3465C24.1337 17.5598 23.6403 18.6932 23.0003 19.7198C22.667 20.2132 22.7737 20.8932 23.2003 21.3198ZM15.3337 25.6932C15.3337 26.5465 16.1203 27.1998 16.947 26.9998C18.4403 26.6532 19.8403 26.0665 21.0937 25.2665C21.8137 24.8132 21.907 23.7998 21.307 23.1998C20.8803 22.7732 20.2003 22.6665 19.6937 22.9998C18.6803 23.6532 17.547 24.1332 16.3203 24.3998C15.7337 24.5332 15.3337 25.0798 15.3337 25.6932ZM15.3337 13.9998V8.66651C15.3337 7.93317 14.7337 7.33317 14.0003 7.33317C13.267 7.33317 12.667 7.93317 12.667 8.66651V13.9998H10.547C9.36033 13.9998 8.76033 15.4398 9.60033 16.2798L13.0537 19.7332C13.5737 20.2532 14.4137 20.2532 14.9337 19.7332L18.387 16.2798C19.227 15.4398 18.627 13.9998 17.4403 13.9998H15.3337ZM12.667 25.6932C12.667 26.5465 11.8803 27.1998 11.0537 27.0132C5.10699 25.6665 0.666992 20.3598 0.666992 13.9998C0.666992 7.63984 5.10699 2.33317 11.0537 0.999841C11.8803 0.813175 12.667 1.45317 12.667 2.30651C12.667 2.91984 12.2537 3.46651 11.6537 3.59984C6.89366 4.66651 3.33366 8.91984 3.33366 13.9998C3.33366 19.0798 6.89366 23.3332 11.6537 24.3998C12.2537 24.5332 12.667 25.0798 12.667 25.6932Z" fill="#9E9E9E"/>
</svg>
