<svg width="10" height="12" viewBox="0 0 10 12" fill="none" xmlns="http://www.w3.org/2000/svg">
<path d="M8.3435 5.87053C8.23537 5.9194 8.13824 5.98963 8.05794 6.07699V6.07523L6.03874 8.09443L6.03874 1.78158C6.03874 1.54813 5.94601 1.32425 5.78094 1.15917C5.61587 0.994103 5.39198 0.901367 5.15854 0.901367C4.92509 0.901367 4.7012 0.994103 4.53613 1.15917C4.37106 1.32425 4.27833 1.54813 4.27833 1.78158L4.27833 8.09443L2.26089 6.07523C2.17969 5.99116 2.08257 5.92411 1.97518 5.87797C1.86779 5.83184 1.75229 5.80756 1.63541 5.80655C1.51854 5.80553 1.40264 5.8278 1.29446 5.87206C1.18629 5.91632 1.08801 5.98168 1.00537 6.06432C0.92272 6.14697 0.857362 6.24524 0.813104 6.35342C0.768847 6.46159 0.746576 6.5775 0.747592 6.69437C0.748607 6.81124 0.772888 6.92675 0.819019 7.03413C0.86515 7.14152 0.932207 7.23865 1.01628 7.31985L4.53711 10.8407C4.70217 11.0057 4.92602 11.0984 5.15942 11.0984C5.39282 11.0984 5.61666 11.0057 5.78172 10.8407L9.30256 7.31985C9.38981 7.23943 9.4599 7.1422 9.50861 7.034C9.55733 6.9258 9.58366 6.80887 9.58604 6.69023C9.58841 6.5716 9.56677 6.45371 9.52242 6.34365C9.47808 6.23359 9.41193 6.13363 9.32797 6.04978C9.244 5.96594 9.14395 5.89994 9.03383 5.85574C8.92371 5.81155 8.80579 5.79008 8.68715 5.79262C8.56852 5.79516 8.45163 5.82166 8.3435 5.87053Z" fill="#006FF1"/>
</svg>
