<svg width="20" height="24" viewBox="0 0 20 24" fill="none" xmlns="http://www.w3.org/2000/svg">
<path d="M2.22222 23.25C1.61111 23.25 1.08778 23.0299 0.652222 22.5896C0.217407 22.1486 0 21.6187 0 21V5.25C0 4.63125 0.217407 4.10175 0.652222 3.6615C1.08778 3.2205 1.61111 3 2.22222 3H3.33333V0.75H5.55556V3H14.4444V0.75H16.6667V3H17.7778C18.3889 3 18.9122 3.2205 19.3478 3.6615C19.7826 4.10175 20 4.63125 20 5.25V21C20 21.6187 19.7826 22.1486 19.3478 22.5896C18.9122 23.0299 18.3889 23.25 17.7778 23.25H2.22222ZM2.22222 21H17.7778V9.75H2.22222V21ZM2.22222 7.5H17.7778V5.25H2.22222V7.5ZM10 14.25C9.68519 14.25 9.42148 14.142 9.20889 13.926C8.99556 13.7107 8.88889 13.4438 8.88889 13.125C8.88889 12.8062 8.99556 12.5389 9.20889 12.3229C9.42148 12.1076 9.68519 12 10 12C10.3148 12 10.5789 12.1076 10.7922 12.3229C11.0048 12.5389 11.1111 12.8062 11.1111 13.125C11.1111 13.4438 11.0048 13.7107 10.7922 13.926C10.5789 14.142 10.3148 14.25 10 14.25ZM5.55556 14.25C5.24074 14.25 4.97667 14.142 4.76333 13.926C4.55074 13.7107 4.44444 13.4438 4.44444 13.125C4.44444 12.8062 4.55074 12.5389 4.76333 12.3229C4.97667 12.1076 5.24074 12 5.55556 12C5.87037 12 6.13445 12.1076 6.34778 12.3229C6.56037 12.5389 6.66667 12.8062 6.66667 13.125C6.66667 13.4438 6.56037 13.7107 6.34778 13.926C6.13445 14.142 5.87037 14.25 5.55556 14.25ZM14.4444 14.25C14.1296 14.25 13.8659 14.142 13.6533 13.926C13.44 13.7107 13.3333 13.4438 13.3333 13.125C13.3333 12.8062 13.44 12.5389 13.6533 12.3229C13.8659 12.1076 14.1296 12 14.4444 12C14.7593 12 15.023 12.1076 15.2356 12.3229C15.4489 12.5389 15.5556 12.8062 15.5556 13.125C15.5556 13.4438 15.4489 13.7107 15.2356 13.926C15.023 14.142 14.7593 14.25 14.4444 14.25ZM10 18.75C9.68519 18.75 9.42148 18.642 9.20889 18.426C8.99556 18.2108 8.88889 17.9438 8.88889 17.625C8.88889 17.3062 8.99556 17.0392 9.20889 16.824C9.42148 16.608 9.68519 16.5 10 16.5C10.3148 16.5 10.5789 16.608 10.7922 16.824C11.0048 17.0392 11.1111 17.3062 11.1111 17.625C11.1111 17.9438 11.0048 18.2108 10.7922 18.426C10.5789 18.642 10.3148 18.75 10 18.75ZM5.55556 18.75C5.24074 18.75 4.97667 18.642 4.76333 18.426C4.55074 18.2108 4.44444 17.9438 4.44444 17.625C4.44444 17.3062 4.55074 17.0392 4.76333 16.824C4.97667 16.608 5.24074 16.5 5.55556 16.5C5.87037 16.5 6.13445 16.608 6.34778 16.824C6.56037 17.0392 6.66667 17.3062 6.66667 17.625C6.66667 17.9438 6.56037 18.2108 6.34778 18.426C6.13445 18.642 5.87037 18.75 5.55556 18.75ZM14.4444 18.75C14.1296 18.75 13.8659 18.642 13.6533 18.426C13.44 18.2108 13.3333 17.9438 13.3333 17.625C13.3333 17.3062 13.44 17.0392 13.6533 16.824C13.8659 16.608 14.1296 16.5 14.4444 16.5C14.7593 16.5 15.023 16.608 15.2356 16.824C15.4489 17.0392 15.5556 17.3062 15.5556 17.625C15.5556 17.9438 15.4489 18.2108 15.2356 18.426C15.023 18.642 14.7593 18.75 14.4444 18.75Z" fill="#9E9E9E"/>
</svg>
