<svg width="10" height="12" viewBox="0 0 10 12" fill="none" xmlns="http://www.w3.org/2000/svg">
<path d="M1.49 6.12947C1.59813 6.0806 1.69526 6.01037 1.77555 5.92301L1.77555 5.92477L3.79475 3.90557L3.79475 10.2184C3.79475 10.4519 3.88749 10.6758 4.05256 10.8408C4.21763 11.0059 4.44151 11.0986 4.67496 11.0986C4.90841 11.0986 5.13229 11.0059 5.29736 10.8408C5.46243 10.6758 5.55517 10.4519 5.55517 10.2184L5.55517 3.90557L7.57261 5.92477C7.6538 6.00884 7.75093 6.07589 7.85832 6.12203C7.96571 6.16816 8.08121 6.19244 8.19808 6.19345C8.31496 6.19447 8.43086 6.1722 8.53903 6.12794C8.64721 6.08368 8.74549 6.01832 8.82813 5.93568C8.91078 5.85303 8.97613 5.75476 9.02039 5.64658C9.06465 5.53841 9.08692 5.4225 9.0859 5.30563C9.08489 5.18876 9.06061 5.07325 9.01448 4.96587C8.96835 4.85848 8.90129 4.76135 8.81722 4.68015L5.29639 1.15932C5.13133 0.994306 4.90748 0.901606 4.67408 0.901606C4.44068 0.901606 4.21684 0.994306 4.05177 1.15932L0.530941 4.68015C0.44369 4.76057 0.3736 4.8578 0.324884 4.966C0.276168 5.0742 0.249833 5.19113 0.247459 5.30977C0.245085 5.4284 0.266724 5.54629 0.311073 5.65635C0.355422 5.76641 0.421566 5.86637 0.505531 5.95022C0.589495 6.03406 0.689544 6.10006 0.799667 6.14426C0.90979 6.18845 1.02771 6.20992 1.14634 6.20738C1.26498 6.20484 1.38187 6.17834 1.49 6.12947Z" fill="#FB4F4F"/>
</svg>
