<svg width="48" height="48" viewBox="0 0 48 48" fill="none" xmlns="http://www.w3.org/2000/svg">
<g filter="url(#filter0_d_773_2678)">
<path d="M36.8 6H11.2C9.44 6 8 7.44 8 9.2V38L14.4 31.6H36.8C38.56 31.6 40 30.16 40 28.4V9.2C40 7.44 38.56 6 36.8 6Z" fill="white"/>
</g>
<g clip-path="url(#clip0_773_2678)">
<path fill-rule="evenodd" clip-rule="evenodd" d="M19.8788 23.1953C20.3003 23.1953 20.7122 23.0726 21.0627 22.8427C21.4131 22.6128 21.6862 22.2861 21.8474 21.9039C22.0087 21.5216 22.0509 21.101 21.9687 20.6952C21.8865 20.2894 21.6835 19.9166 21.3855 19.6241C21.0875 19.3315 20.7079 19.1323 20.2945 19.0515C19.8812 18.9708 19.4528 19.0123 19.0634 19.1706C18.6741 19.3289 18.3413 19.5971 18.1072 19.9411C17.873 20.2851 17.748 20.6896 17.748 21.1033C17.748 21.6581 17.9725 22.1902 18.3721 22.5825C18.7717 22.9749 19.3137 23.1953 19.8788 23.1953ZM19.8788 21.6263C20.0201 21.6263 20.1556 21.5712 20.2555 21.4731C20.3554 21.375 20.4115 21.242 20.4115 21.1033C20.4115 20.9646 20.3554 20.8316 20.2555 20.7335C20.1556 20.6354 20.0201 20.5803 19.8788 20.5803C19.7376 20.5803 19.6021 20.6354 19.5022 20.7335C19.4023 20.8316 19.3461 20.9646 19.3461 21.1033C19.3461 21.242 19.4023 21.375 19.5022 21.4731C19.6021 21.5712 19.7376 21.6263 19.8788 21.6263Z" fill="#00B0B9"/>
<path fill-rule="evenodd" clip-rule="evenodd" d="M30.5331 21.1033C30.5331 21.5171 30.4081 21.9215 30.174 22.2655C29.9398 22.6096 29.6071 22.8777 29.2177 23.036C28.8284 23.1944 28.3999 23.2358 27.9866 23.1551C27.5733 23.0743 27.1936 22.8751 26.8956 22.5825C26.5976 22.29 26.3946 21.9172 26.3124 21.5114C26.2302 21.1056 26.2724 20.685 26.4337 20.3028C26.595 19.9205 26.8681 19.5938 27.2185 19.3639C27.5689 19.134 27.9808 19.0114 28.4023 19.0114C28.9674 19.0114 29.5094 19.2318 29.909 19.6241C30.3086 20.0164 30.5331 20.5485 30.5331 21.1033ZM28.935 21.1033C28.935 21.242 28.8789 21.375 28.779 21.4731C28.6791 21.5712 28.5436 21.6263 28.4023 21.6263C28.261 21.6263 28.1255 21.5712 28.0256 21.4731C27.9257 21.375 27.8696 21.242 27.8696 21.1033C27.8696 20.9646 27.9257 20.8316 28.0256 20.7335C28.1255 20.6354 28.261 20.5803 28.4023 20.5803C28.5436 20.5803 28.6791 20.6354 28.779 20.7335C28.8789 20.8316 28.935 20.9646 28.935 21.1033Z" fill="#00B0B9"/>
<path fill-rule="evenodd" clip-rule="evenodd" d="M14.149 23.896C14.679 24.9432 15.4965 25.8242 16.5093 26.4396C17.522 27.0551 18.6898 27.3805 19.8809 27.3791H28.404C29.6367 27.3777 30.8426 27.0264 31.8766 26.3676C32.9105 25.7088 33.7284 24.7706 34.2318 23.6659C34.6495 23.3761 34.9903 22.9921 35.2255 22.5462C35.4607 22.1003 35.5834 21.6054 35.5834 21.1033C35.5834 20.6011 35.4607 20.1063 35.2255 19.6603C34.9903 19.2144 34.6495 18.8304 34.2318 18.5406C33.7284 17.4359 32.9105 16.4977 31.8766 15.8389C30.8426 15.1801 29.6367 14.8288 28.404 14.8274H19.8809C18.6898 14.8261 17.522 15.1515 16.5093 15.7669C15.4965 16.3823 14.679 17.2633 14.149 18.3105C13.6255 18.5738 13.1861 18.9739 12.8793 19.4667C12.5725 19.9594 12.4102 20.5257 12.4102 21.1033C12.4102 21.6808 12.5725 22.2471 12.8793 22.7399C13.1861 23.2326 13.6255 23.6327 14.149 23.896ZM19.8809 16.9194H28.404C29.1031 16.9195 29.7913 17.0884 30.4082 17.4113C31.025 17.7341 31.5515 18.201 31.9412 18.7707C32.5378 20.2706 32.5378 21.9359 31.9412 23.4358C31.5515 24.0055 31.025 24.4724 30.4082 24.7953C29.7913 25.1181 29.1031 25.287 28.404 25.2872H19.8809C18.7506 25.2872 17.6667 24.8464 16.8675 24.0617C16.0682 23.2771 15.6193 22.2129 15.6193 21.1033C15.6193 19.9936 16.0682 18.9294 16.8675 18.1448C17.6667 17.3602 18.7506 16.9194 19.8809 16.9194Z" fill="#00B0B9"/>
<ellipse cx="24.0087" cy="12.0687" rx="1.65517" ry="1.65517" fill="#00B0B9"/>
<rect x="23.457" y="11.517" width="1.10345" height="3.31035" fill="#00B0B9"/>
</g>
<defs>
<filter id="filter0_d_773_2678" x="0" y="0" width="48" height="48" filterUnits="userSpaceOnUse" color-interpolation-filters="sRGB">
<feFlood flood-opacity="0" result="BackgroundImageFix"/>
<feColorMatrix in="SourceAlpha" type="matrix" values="0 0 0 0 0 0 0 0 0 0 0 0 0 0 0 0 0 0 127 0" result="hardAlpha"/>
<feOffset dy="2"/>
<feGaussianBlur stdDeviation="4"/>
<feComposite in2="hardAlpha" operator="out"/>
<feColorMatrix type="matrix" values="0 0 0 0 0.00705388 0 0 0 0 0.139162 0 0 0 0 0.194974 0 0 0 0.2 0"/>
<feBlend mode="normal" in2="BackgroundImageFix" result="effect1_dropShadow_773_2678"/>
<feBlend mode="normal" in="SourceGraphic" in2="effect1_dropShadow_773_2678" result="shape"/>
</filter>
<clipPath id="clip0_773_2678">
<rect width="23.1724" height="16.5517" fill="white" transform="translate(12.4219 10.4136)"/>
</clipPath>
</defs>
</svg>
