<svg width="18" height="18" viewBox="0 0 18 18" fill="none" xmlns="http://www.w3.org/2000/svg">
<path d="M14.8179 3.18255L14.8179 7.82117C14.8179 8.55656 15.4119 9.15053 16.1472 9.15053C16.8826 9.15053 17.4766 8.55656 17.4766 7.82117L17.486 1.83433C17.486 1.09894 16.8921 0.50497 16.1567 0.50497L10.1698 0.514398C9.43444 0.514398 8.84048 1.10837 8.84048 1.84376C8.84048 2.57915 9.43445 3.17312 10.1698 3.17312L14.8179 3.18255ZM3.18362 14.8168L3.18362 10.1782C3.18362 9.4428 2.58965 8.84883 1.85426 8.84883C1.11887 8.84883 0.524899 9.4428 0.524899 10.1782L0.515471 16.165C0.515472 16.9004 1.10944 17.4944 1.84483 17.4944L7.82224 17.4944C8.55763 17.4944 9.1516 16.9004 9.1516 16.165C9.1516 15.4296 8.55763 14.8357 7.82224 14.8357L3.18362 14.8168Z" fill="#777777"/>
</svg>
