<svg width="85" height="84" viewBox="0 0 85 84" fill="none" xmlns="http://www.w3.org/2000/svg">
<g filter="url(#filter0_d_773_1378)">
<path d="M69.7 6H15.3C11.56 6 8.5 9.06 8.5 12.8V74L22.1 60.4H69.7C73.44 60.4 76.5 57.34 76.5 53.6V12.8C76.5 9.06 73.44 6 69.7 6Z" fill="white"/>
</g>
<g clip-path="url(#clip0_773_1378)">
<path fill-rule="evenodd" clip-rule="evenodd" d="M33.7389 42.5391C34.6344 42.5391 35.5099 42.2784 36.2545 41.7899C36.9991 41.3015 37.5794 40.6072 37.9222 39.7949C38.2649 38.9826 38.3545 38.0888 38.1798 37.2265C38.0051 36.3641 37.5739 35.572 36.9406 34.9503C36.3074 34.3286 35.5006 33.9053 34.6222 33.7337C33.7439 33.5622 32.8335 33.6502 32.0061 33.9867C31.1787 34.3232 30.4716 34.8929 29.974 35.624C29.4765 36.355 29.2109 37.2145 29.2109 38.0937C29.2109 39.2727 29.688 40.4034 30.5371 41.2371C31.3863 42.0708 32.538 42.5391 33.7389 42.5391ZM33.7389 39.2051C34.0391 39.2051 34.327 39.088 34.5393 38.8796C34.7516 38.6711 34.8709 38.3885 34.8709 38.0937C34.8709 37.799 34.7516 37.5163 34.5393 37.3079C34.327 37.0995 34.0391 36.9824 33.7389 36.9824C33.4387 36.9824 33.1507 37.0995 32.9384 37.3079C32.7262 37.5163 32.6069 37.799 32.6069 38.0937C32.6069 38.3885 32.7262 38.6711 32.9384 38.8796C33.1507 39.088 33.4387 39.2051 33.7389 39.2051Z" fill="#00B0B9"/>
<path fill-rule="evenodd" clip-rule="evenodd" d="M56.3782 38.0937C56.3782 38.9729 56.1126 39.8324 55.6151 40.5635C55.1175 41.2945 54.4104 41.8643 53.583 42.2007C52.7556 42.5372 51.8452 42.6252 50.9669 42.4537C50.0885 42.2822 49.2817 41.8588 48.6485 41.2371C48.0152 40.6154 47.584 39.8233 47.4093 38.961C47.2346 38.0987 47.3242 37.2048 47.6669 36.3925C48.0096 35.5802 48.59 34.886 49.3346 34.3975C50.0792 33.909 50.9547 33.6483 51.8502 33.6483C53.0511 33.6483 54.2028 34.1167 55.052 34.9503C55.9011 35.784 56.3782 36.9147 56.3782 38.0937ZM52.9822 38.0937C52.9822 38.3885 52.8629 38.6711 52.6506 38.8796C52.4384 39.088 52.1504 39.2051 51.8502 39.2051C51.55 39.2051 51.2621 39.088 51.0498 38.8796C50.8375 38.6711 50.7182 38.3885 50.7182 38.0937C50.7182 37.799 50.8375 37.5163 51.0498 37.3079C51.2621 37.0995 51.55 36.9824 51.8502 36.9824C52.1504 36.9824 52.4384 37.0995 52.6506 37.3079C52.8629 37.5163 52.9822 37.799 52.9822 38.0937Z" fill="#00B0B9"/>
<path fill-rule="evenodd" clip-rule="evenodd" d="M21.5584 44.0283C22.6846 46.2536 24.4218 48.1256 26.5739 49.4334C28.726 50.7412 31.2075 51.4327 33.7385 51.4299H51.8503C54.4696 51.4269 57.0322 50.6804 59.2294 49.2805C61.4266 47.8805 63.1646 45.8867 64.2342 43.5393C65.1219 42.9234 65.846 42.1075 66.3458 41.1599C66.8456 40.2123 67.1064 39.1608 67.1064 38.0937C67.1064 37.0266 66.8456 35.975 66.3458 35.0275C65.846 34.0799 65.1219 33.2639 64.2342 32.648C63.1646 30.3006 61.4266 28.3068 59.2294 26.9069C57.0322 25.5069 54.4696 24.7605 51.8503 24.7575H33.7385C31.2075 24.7546 28.726 25.4461 26.5739 26.7539C24.4218 28.0617 22.6846 29.9338 21.5584 32.1591C20.4458 32.7186 19.5122 33.5688 18.8602 34.6159C18.2083 35.663 17.8633 36.8664 17.8633 38.0937C17.8633 39.3209 18.2083 40.5243 18.8602 41.5714C19.5122 42.6186 20.4458 43.4687 21.5584 44.0283ZM33.7385 29.2029H51.8503C53.3357 29.2031 54.7983 29.5621 56.109 30.2482C57.4198 30.9343 58.5386 31.9264 59.3667 33.137C60.6345 36.3242 60.6345 39.8631 59.3667 43.0503C58.5386 44.261 57.4198 45.2531 56.109 45.9391C54.7983 46.6252 53.3357 46.9842 51.8503 46.9845H33.7385C31.3367 46.9845 29.0333 46.0478 27.335 44.3804C25.6367 42.7131 24.6826 40.4517 24.6826 38.0937C24.6826 35.7357 25.6367 33.4743 27.335 31.8069C29.0333 30.1396 31.3367 29.2029 33.7385 29.2029Z" fill="#00B0B9"/>
<ellipse cx="42.5114" cy="18.8954" rx="3.51724" ry="3.51724" fill="#00B0B9"/>
<rect x="41.3398" y="17.723" width="2.34483" height="7.03448" fill="#00B0B9"/>
</g>
<defs>
<filter id="filter0_d_773_1378" x="0.5" y="0" width="84" height="84" filterUnits="userSpaceOnUse" color-interpolation-filters="sRGB">
<feFlood flood-opacity="0" result="BackgroundImageFix"/>
<feColorMatrix in="SourceAlpha" type="matrix" values="0 0 0 0 0 0 0 0 0 0 0 0 0 0 0 0 0 0 127 0" result="hardAlpha"/>
<feOffset dy="2"/>
<feGaussianBlur stdDeviation="4"/>
<feComposite in2="hardAlpha" operator="out"/>
<feColorMatrix type="matrix" values="0 0 0 0 0.00705388 0 0 0 0 0.139162 0 0 0 0 0.194974 0 0 0 0.2 0"/>
<feBlend mode="normal" in2="BackgroundImageFix" result="effect1_dropShadow_773_1378"/>
<feBlend mode="normal" in="SourceGraphic" in2="effect1_dropShadow_773_1378" result="shape"/>
</filter>
<clipPath id="clip0_773_1378">
<rect width="49.2414" height="35.1724" fill="white" transform="translate(17.8906 15.3782)"/>
</clipPath>
</defs>
</svg>
